<svg width="1400" height="700" viewBox="0 0 1400 700" xmlns="http://www.w3.org/2000/svg">
  <rect x="0" y="0" width="1400" height="700" fill="#FAFAFA"/>
  <circle cx="200" cy="120" r="90" fill="#6C5CE7" opacity="0.30"/>
  <circle cx="420" cy="60" r="50" fill="#FFC145" opacity="0.45"/>
  <rect x="600" y="80" width="120" height="120" rx="16" fill="#6C5CE7" opacity="0.35" transform="rotate(20 660 140)"/>
  <circle cx="900" cy="150" r="70" fill="#FFC145" opacity="0.40"/>
  <rect x="1050" y="60" width="100" height="100" rx="20" fill="#6C5CE7" opacity="0.30" transform="rotate(-15 1100 110)"/>
  <circle cx="1250" cy="180" r="110" fill="#FFC145" opacity="0.35"/>
  <circle cx="150" cy="450" r="80" fill="#FFC145" opacity="0.40"/>
  <rect x="350" y="400" width="140" height="140" rx="24" fill="#6C5CE7" opacity="0.30" transform="rotate(10 420 470)"/>
  <circle cx="650" cy="520" r="90" fill="#FFC145" opacity="0.35"/>
  <rect x="850" y="450" width="110" height="110" rx="18" fill="#6C5CE7" opacity="0.35" transform="rotate(-25 905 505)"/>
  <circle cx="1100" cy="500" r="100" fill="#FFC145" opacity="0.40"/>
  <circle cx="1320" cy="420" r="70" fill="#6C5CE7" opacity="0.35"/>
</svg>
